<svg id="Your_design" data-name="Your design" xmlns="http://www.w3.org/2000/svg" viewBox="0 0 632.01 126.61"><defs><style>.cls-1{fill:#f3ba2f;}</style></defs><polygon class="cls-1" points="38.17 53.2 62.76 28.62 87.36 53.22 101.67 38.91 62.76 0 23.86 38.9 38.17 53.2"/><rect class="cls-1" x="3.64" y="53.19" width="20.23" height="20.23" transform="translate(-40.73 28.27) rotate(-45)"/><polygon class="cls-1" points="38.17 73.41 62.76 98 87.36 73.4 101.67 87.69 101.67 87.7 62.76 126.61 23.86 87.72 23.84 87.7 38.17 73.41"/><rect class="cls-1" x="101.64" y="53.19" width="20.23" height="20.23" transform="translate(-12.03 97.57) rotate(-45)"/><polygon class="cls-1" points="77.27 63.3 77.28 63.3 62.76 48.78 52.03 59.51 52.03 59.51 50.8 60.74 48.25 63.28 48.25 63.28 48.23 63.3 48.25 63.33 62.76 77.83 77.28 63.31 77.28 63.3 77.27 63.3"/><path class="cls-1" d="M148.37,30.68h31.12q11.58,0,17.52,5.94A15.54,15.54,0,0,1,201.6,48v.19a16.67,16.67,0,0,1-.71,5.08,15.6,15.6,0,0,1-1.91,4,14.77,14.77,0,0,1-2.76,3.12,17.92,17.92,0,0,1-3.39,2.3,22.66,22.66,0,0,1,9.17,6q3.34,3.8,3.34,10.5v.19a17.44,17.44,0,0,1-1.77,8.06,15.72,15.72,0,0,1-5.07,5.76,24.05,24.05,0,0,1-7.95,3.45,42.7,42.7,0,0,1-10.29,1.15H148.37Zm28,27.14a15.39,15.39,0,0,0,7.77-1.68A5.8,5.8,0,0,0,187,50.72v-.19a5.93,5.93,0,0,0-2.49-5.13q-2.49-1.77-7.19-1.77H162.76V57.82Zm3.93,27.05A14.2,14.2,0,0,0,188,83.1a6.08,6.08,0,0,0,2.78-5.52v-.19a6.31,6.31,0,0,0-2.59-5.32q-2.58-2-8.34-2H162.76V84.87Z"/><path class="cls-1" d="M223.88,30.68h14.77V97.82H223.88Z"/><path class="cls-1" d="M261,30.68h13.62L306.1,72V30.68h14.58V97.82H308.11L275.6,55.14V97.82H261Z"/><path class="cls-1" d="M365.4,30.2H379l28.77,67.62H392.35l-6.14-15.06H357.82l-6.14,15.06H336.62Zm15.54,39.52L372,47.94,363.1,69.72Z"/><path class="cls-1" d="M423.74,30.68h13.62L468.82,72V30.68H483.4V97.82H470.83L438.32,55.14V97.82H423.74Z"/><path class="cls-1" d="M536.56,99a34.93,34.93,0,0,1-13.72-2.68A33.17,33.17,0,0,1,504.71,78a35.54,35.54,0,0,1-2.59-13.53v-.19a34.84,34.84,0,0,1,9.79-24.51,33.23,33.23,0,0,1,11-7.48,35.9,35.9,0,0,1,14.19-2.73,44.49,44.49,0,0,1,8.58.77,35.66,35.66,0,0,1,7.06,2.11,30.5,30.5,0,0,1,5.85,3.26,39.52,39.52,0,0,1,5,4.22l-9.39,10.84a35.71,35.71,0,0,0-8-5.57,20.47,20.47,0,0,0-9.16-2,18.58,18.58,0,0,0-14,6.14A21.09,21.09,0,0,0,519,56a22.87,22.87,0,0,0-1.43,8.11v.19A23.21,23.21,0,0,0,519,72.4a21.32,21.32,0,0,0,4,6.71A18.46,18.46,0,0,0,537,85.35a20.52,20.52,0,0,0,9.73-2.11,37.62,37.62,0,0,0,7.91-5.76l9.4,9.5a47.93,47.93,0,0,1-5.37,5,32,32,0,0,1-6.09,3.79,31.56,31.56,0,0,1-7.24,2.39A43.11,43.11,0,0,1,536.56,99Z"/><path class="cls-1" d="M581.47,30.68H632V43.82h-36V57.44H627.7V70.58H596.05v14.1H632.5V97.82h-51Z"/></svg>