<svg id="圖層_1" data-name="圖層 1" xmlns="http://www.w3.org/2000/svg" viewBox="0 0 858 290"><defs><style>.cls-1{fill:#7ce8fe;}.cls-2{fill:#3ec7e3;}.cls-3{fill:#00a2c7;}.cls-4{fill:#fff;}</style></defs><path class="cls-1" d="M170.33,187.37H119.19v51.14h51.14Z"/><path class="cls-2" d="M205.65,119.18H119.19v51.14H221.47V119.18Z"/><path class="cls-3" d="M272.6,51H119.19v51.14H272.6Z"/><path class="cls-2" d="M102.14,119.19H51v51.13h51.14Z"/><path class="cls-4" d="M323.73,238.52h39.64V161.06h76.27V128.37H363.37V83.69h84.52V51H323.73Z"/><path class="cls-4" d="M467.41,83.69h57.41V238.52H564V83.69h57.41V51h-154Z"/><path class="cls-4" d="M684,51H639l57.59,93.76L637.9,238.52h45.42l38.45-64h1.47l38.45,64h45.6l-58.51-93.76L806,51H761.23l-38,63.91h-1.47Z"/></svg>